<?xml version="1.0" ?><svg data-name="Filled Outline" id="Filled_Outline" viewBox="0 0 128 128" xmlns="http://www.w3.org/2000/svg"><title/><rect height="66.98" rx="2.989" ry="2.989" style="fill:#e8ca95" transform="translate(138.408 163.467) rotate(-152.256)" width="48.643" x="65.067" y="31.153"/><rect height="53.023" style="fill:#f94668" transform="translate(138.399 163.477) rotate(-152.256)" width="36.449" x="71.161" y="38.138"/><rect height="36.451" style="fill:#d63866" transform="translate(-27.103 114.697) rotate(-62.25)" width="18.814" x="72.016" y="61.565"/><path d="M94.062,106.057a4.445,4.445,0,0,1-2.082-.516L54.22,85.68a4.488,4.488,0,0,1-1.884-6.063l28.4-53.988A4.488,4.488,0,0,1,86.8,23.745l37.76,19.862a4.494,4.494,0,0,1,1.883,6.063l-28.4,53.988A4.5,4.5,0,0,1,94.062,106.057ZM84.709,26.228a1.5,1.5,0,0,0-1.32.8l-28.4,53.989a1.49,1.49,0,0,0,.625,2.011h0l37.759,19.862a1.5,1.5,0,0,0,2.012-.625l28.4-53.989a1.492,1.492,0,0,0-.624-2.011L85.4,26.4A1.491,1.491,0,0,0,84.709,26.228Z" style="fill:#543434"/><path d="M119.289,49.225a1.5,1.5,0,0,0-.734-.882L86.3,31.375A1.5,1.5,0,0,0,84.27,32L59.586,78.931a1.5,1.5,0,0,0,.63,2.025L92.475,97.924A1.5,1.5,0,0,0,94.5,97.3l8.745-16.624c0-.008.011-.013.015-.022s.008-.023.014-.034l15.91-30.247A1.5,1.5,0,0,0,119.289,49.225ZM92.543,94.571,62.94,79,70.3,65.006,99.9,80.578ZM101.3,77.924,71.7,62.352l14.53-27.624,29.6,15.571Z" style="fill:#543434"/><rect height="66.98" rx="2.989" ry="2.989" style="fill:#edd5a4" transform="matrix(-0.978, -0.207, 0.207, -0.978, 119.985, 131.347)" width="48.643" x="42.546" y="25.903"/><rect height="53.023" style="fill:#ffb31a" transform="translate(119.98 131.36) rotate(-168.047)" width="36.449" x="48.642" y="32.888"/><rect height="36.45" style="fill:#ef9325" transform="translate(-24.288 122.296) rotate(-78.033)" width="18.809" x="53.918" y="57.911"/><path d="M81.421,98.141a4.558,4.558,0,0,1-.93-.1l-41.74-8.837a4.487,4.487,0,0,1-3.462-5.321L47.923,24.206a4.5,4.5,0,0,1,5.321-3.463l41.74,8.836A4.5,4.5,0,0,1,98.446,34.9L85.813,94.58A4.5,4.5,0,0,1,81.421,98.141ZM52.314,23.646a1.493,1.493,0,0,0-1.457,1.181L38.224,84.506a1.49,1.49,0,0,0,1.148,1.765h0l41.74,8.836a1.487,1.487,0,0,0,1.766-1.148L95.512,34.28a1.491,1.491,0,0,0-1.15-1.765L52.623,23.679A1.418,1.418,0,0,0,52.314,23.646Z" style="fill:#543434"/><path d="M91.444,36.419a1.5,1.5,0,0,0-.947-.649L54.838,28.221a1.5,1.5,0,0,0-1.777,1.157L42.079,81.251a1.5,1.5,0,0,0,1.156,1.778l35.659,7.55a1.5,1.5,0,0,0,1.778-1.157l3.892-18.385.006-.016a.258.258,0,0,0,0-.029l7.081-33.444A1.5,1.5,0,0,0,91.444,36.419Zm-13.4,50.914L45.324,80.4,48.6,64.939l32.724,6.928Zm3.895-18.4L49.22,62l6.465-30.537L88.408,38.4Z" style="fill:#543434"/><rect height="66.98" rx="2.989" ry="2.989" style="fill:#f4e2ba" transform="translate(97.52 119.708) rotate(178.118)" width="48.643" x="23.456" y="27.165"/><rect height="53.023" style="fill:#646b99" transform="translate(97.521 119.722) rotate(178.118)" width="36.449" x="29.553" y="34.15"/><rect height="18.81" style="fill:#5f6793" transform="translate(-2.534 1.634) rotate(-1.887)" width="36.45" x="30.113" y="68.356"/><path d="M27.454,96.329a4.49,4.49,0,0,1-4.483-4.343l-2-60.967a4.489,4.489,0,0,1,4.34-4.634l42.641-1.4a4.472,4.472,0,0,1,4.634,4.34l2,60.969a4.489,4.489,0,0,1-4.339,4.633l-42.642,1.4h0ZM68.1,27.98h-.05l-42.641,1.4a1.491,1.491,0,0,0-1.44,1.538l2,60.968a1.478,1.478,0,0,0,.471,1.038,1.52,1.52,0,0,0,1.066.4h0l42.641-1.4a1.489,1.489,0,0,0,1.44-1.537l-2-60.969A1.491,1.491,0,0,0,68.1,27.98Z" style="fill:#543434"/><path d="M66.621,33.518a1.486,1.486,0,0,0-1.549-1.451l-36.429,1.2a1.5,1.5,0,0,0-1.45,1.548l1.123,34.172c0,.009,0,.017,0,.027a.251.251,0,0,0,0,.027l.616,18.769a1.5,1.5,0,0,0,1.5,1.451h.049l36.43-1.2a1.5,1.5,0,0,0,1.45-1.548Zm-2.949,1.6,1.025,31.2-33.432,1.1-1.024-31.2ZM31.883,86.209l-.519-15.8,33.431-1.1.519,15.8Z" style="fill:#543434"/><rect height="66.98" rx="2.989" ry="2.989" style="fill:#f9eacd" transform="translate(82.899 125.906) rotate(165.889)" width="48.643" x="9.336" y="34.593"/><rect height="53.023" style="fill:#55b78b" transform="translate(82.904 125.919) rotate(165.889)" width="36.449" x="15.435" y="41.579"/><rect height="18.809" style="fill:#508c6d" transform="translate(-19.491 11.769) rotate(-14.101)" width="36.448" x="19.609" y="75.277"/><path d="M20.406,107.354a4.5,4.5,0,0,1-4.354-3.395L1.179,44.8a4.494,4.494,0,0,1,3.259-5.447l41.378-10.4a4.5,4.5,0,0,1,5.448,3.26l14.872,59.16a4.487,4.487,0,0,1-3.259,5.448L21.5,107.219h0A4.482,4.482,0,0,1,20.406,107.354Zm.728-1.59h0ZM46.91,31.813a1.461,1.461,0,0,0-.363.045L5.169,42.26a1.492,1.492,0,0,0-1.081,1.807l14.873,59.162a1.489,1.489,0,0,0,1.808,1.08l41.377-10.4A1.486,1.486,0,0,0,63.227,92.1L48.354,32.938A1.491,1.491,0,0,0,46.91,31.813Z" style="fill:#543434"/><path d="M59.252,88.993,46.325,37.57a1.5,1.5,0,0,0-1.82-1.09L9.155,45.367a1.5,1.5,0,0,0-1.089,1.821L20.994,98.61a1.5,1.5,0,0,0,1.454,1.135,1.534,1.534,0,0,0,.366-.045l35.35-8.887A1.5,1.5,0,0,0,59.252,88.993ZM43.782,39.756l7.611,30.275-32.442,8.15-7.61-30.27ZM23.538,96.425,19.683,81.091l32.441-8.15L55.978,88.27Z" style="fill:#543434"/></svg>